<svg width="610" height="579" viewBox="0 0 610 579" fill="none" xmlns="http://www.w3.org/2000/svg">
<path d="M350 404C350 500.65 271.65 579 175 579C78.3502 579 0 500.65 0 404C0 307.35 78.3502 229 175 229C271.65 229 350 307.35 350 404Z" fill="#00A3EA" fill-opacity="0.75"/>
<path d="M350 175C350 271.65 271.65 350 175 350C78.3502 350 0 271.65 0 175C0 78.3502 78.3502 0 175 0C271.65 0 350 78.3502 350 175Z" fill="#FF2D00" fill-opacity="0.75"/>
<path d="M610 404C610 500.65 531.65 579 435 579C338.35 579 260 500.65 260 404C260 307.35 338.35 229 435 229C531.65 229 610 307.35 610 404Z" fill="#02C26D" fill-opacity="0.75"/>
<path d="M610 175C610 271.65 531.65 350 435 350C338.35 350 260 271.65 260 175C260 78.3502 338.35 0 435 0C531.65 0 610 78.3502 610 175Z" fill="#FFB402" fill-opacity="0.75"/>
<path d="M182 199H428V260H182V199Z" fill="white"/>
<path d="M275 260H334V381H275V260Z" fill="white"/>
</svg>
