<svg width="203" height="236" viewBox="0 0 203 236" fill="none" xmlns="http://www.w3.org/2000/svg">
<path d="M0 9.96555C0 4.46173 4.46173 0 9.96555 0H59.7933V71.752H9.96555C4.46173 71.752 0 67.2902 0 61.7864V9.96555Z" fill="#FC0000"/>
<path d="M202.5 9.96555C202.5 4.46173 198.038 0 192.534 0H142.707V71.752H192.534C198.038 71.752 202.5 67.2902 202.5 61.7864V9.96555Z" fill="#0095FE"/>
<rect x="59.7933" y="71.752" width="41.4567" height="82.1161" fill="#FF8100"/>
<rect x="59.7933" width="41.4567" height="71.752" fill="#FF4900"/>
<path d="M59.7933 153.868H101.25V235.984H69.7589C64.2551 235.984 59.7933 231.523 59.7933 226.019V153.868Z" fill="#FFB601"/>
<rect x="101.25" y="71.752" width="41.4567" height="82.1161" fill="#15C58E"/>
<rect x="101.25" width="41.4567" height="71.752" fill="#3CBB0E"/>
<path d="M101.25 153.868H142.707V226.019C142.707 231.523 138.245 235.984 132.741 235.984H101.25V153.868Z" fill="#8831F9"/>
</svg>
