<svg width="361" height="809" viewBox="0 0 361 809" fill="none" xmlns="http://www.w3.org/2000/svg">
<path fill-rule="evenodd" clip-rule="evenodd" d="M198.807 0.75041C198.788 1.16208 195.264 25.9355 190.974 55.8009C185.73 92.2991 183.529 110.222 184.26 110.468C185.323 110.826 234.42 117.908 235.843 117.908C236.785 117.908 239.281 99.0508 238.449 98.2194C238.098 97.8687 230.804 96.5707 222.238 95.3357C213.673 94.0997 206.501 92.9256 206.302 92.7267C206.102 92.5279 208.835 72.3698 212.372 47.9311C215.91 23.4934 218.811 3.22945 218.818 2.90071C218.83 2.32617 204.194 -0.00299474 200.589 2.89083e-06C199.627 2.89083e-06 198.825 0.338735 198.807 0.75041ZM125.698 3.86095C119.828 4.76024 114.8 5.72548 114.526 6.00626C113.726 6.82561 110.406 117.764 111.16 118.518C111.537 118.894 115.902 118.621 120.859 117.911L129.874 116.619V110.359V104.1L136.621 102.986C140.331 102.373 145.138 101.771 147.304 101.647C151.229 101.422 151.245 101.436 152.833 106.615C153.708 109.472 154.651 112.035 154.928 112.311C155.567 112.951 172.645 110.456 173.503 109.597C174.636 108.464 139.343 2.51302 137.783 2.36214C137.006 2.28719 131.568 2.96166 125.698 3.86095ZM288.497 36.2224C274.161 63.6497 245.817 119.628 245.818 120.512C245.819 121.431 260.838 129.898 262.467 129.898C262.968 129.898 271.458 113.947 281.334 94.4504C291.21 74.9538 299.546 58.9914 299.86 58.9784C300.173 58.9654 300.988 63.7586 301.671 69.631C302.354 75.5034 303.165 81.5696 303.473 83.1113L304.034 85.9141L316.508 79.2994L328.981 72.6836L310.779 108.844C300.768 128.731 292.738 145.15 292.935 145.328C293.52 145.86 309.701 153.879 310.188 153.879C310.6 153.879 360.76 55.1494 360.76 54.3381C360.76 53.6836 342.834 44.9655 341.539 44.9905C340.841 45.0044 335.547 47.6464 329.775 50.8608C324.003 54.0763 319.133 56.5793 318.955 56.4224C318.776 56.2666 317.876 50.593 316.955 43.8144L315.282 31.4891L306.787 26.7419C302.114 24.1309 297.762 21.9916 297.115 21.9886C296.469 21.9856 292.591 28.3906 288.497 36.2224ZM36.9198 32.0437C34.446 32.5223 25.1266 36.5042 16.211 40.8937L0 48.8744L14.5858 78.6449C22.6068 95.0189 33.5944 117.521 39.0007 128.649C44.4081 139.778 49.3287 148.883 49.9364 148.883C50.5441 148.883 57.8185 145.451 66.1014 141.257C81.8076 133.304 87.21 129.122 90.7572 122.171C93.4449 116.904 95.263 106.881 94.4784 101.651C92.9161 91.2409 83.9925 78.9656 75.3658 75.3625C72.2593 74.0645 72.0414 73.7088 72.928 71.3766C74.4183 67.4567 74.0864 56.8561 72.3103 51.6442C67.8275 38.4906 51.2017 29.2829 36.9198 32.0437ZM138.761 61.8731C142.119 73.0953 144.866 82.6087 144.866 83.0124C144.866 83.4161 142.505 84.0466 139.619 84.4123C136.733 84.779 133.584 85.3006 132.623 85.5734C131.015 86.028 130.873 84.9109 130.879 71.7613C130.884 58.8375 131.804 40.529 132.414 41.2015C132.548 41.3483 135.403 50.65 138.761 61.8731ZM49.0858 53.7635C52.5421 55.747 54.3661 59.2432 54.3661 63.8885C54.3661 69.3103 51.7265 72.5087 44.0702 76.3627L37.2716 79.786L31.9002 68.9016C28.9457 62.9163 26.7298 57.8343 26.9767 57.6095C27.9552 56.7182 36.5689 52.6135 38.9188 51.92C41.9093 51.0367 45.4526 51.6792 49.0858 53.7635ZM66.924 93.9368C73.6337 97.3581 76.1254 105.714 72.5172 112.69C70.957 115.705 62.0304 121.874 59.1948 121.896C58.1593 121.904 46.9148 99.95 46.9148 97.9206C46.9148 96.8255 58.1213 91.9693 60.698 91.9474C61.9564 91.9374 64.758 92.8317 66.924 93.9368ZM165.856 171.872C162.833 172.888 150.239 176.722 137.87 180.393C125.501 184.062 107.96 189.882 98.8892 193.326C89.8187 196.771 80.1484 200.328 77.3998 201.231C68.6141 204.118 64.6431 206.98 61.2668 212.861C54.5801 224.505 49.4976 231.654 41.7504 240.311C22.5529 261.765 16.9986 270.665 13.0286 286.334C6.83261 310.781 4.97555 338.04 4.96155 404.681C4.94856 466.216 5.91209 474.669 15.4954 497.108C27.1526 524.405 29.2336 529.829 36.3321 551.429C40.478 564.042 47.0288 585.363 50.8899 598.807C59.1818 627.681 59.3407 629.799 54.8769 651.986C49.7454 677.49 45.0438 689.214 35.5115 700.28C31.3255 705.139 30.9227 706.065 30.9227 710.825C30.9227 718.431 34.7598 725.334 44.3761 735.025C67.6076 758.438 121.087 789.55 163.508 804.331L175.652 808.562L181.499 806.881C199.779 801.624 225.813 790.49 243.474 780.376C281.495 758.602 309.44 736.072 317.649 720.571C322.439 711.528 321.887 708.041 314.015 697.597C304.947 685.567 300.618 673.022 295.782 644.775C293.164 629.48 293.157 629.524 304.808 589.535C315.112 554.171 324.807 525.085 330.785 511.597C333.098 506.376 336.551 498.583 338.458 494.281C347.393 474.116 349.304 455.533 348.34 398.186C347.295 336.069 345.274 308.903 340.205 288.922C335.652 270.971 330.341 262.28 309.341 238.411C302.967 231.165 297.441 223.746 295.201 219.426C289.53 208.487 287.614 206.4 280.601 203.522C268.448 198.533 238.132 187.988 218.83 182.036C174.697 168.427 175.593 168.599 165.856 171.872ZM102.797 386.177C113.804 388.491 121.336 391.28 135.51 398.285C150.038 405.467 156.408 410.152 155.346 412.878C154.356 415.423 147.272 419.603 127.875 429.089C107.951 438.833 98.6053 441.664 86.4853 441.628C76.997 441.599 71.5467 440.489 64.4812 437.148C48.0923 429.397 41.1117 414.551 48.1832 402.488C52.8809 394.473 62.8699 387.783 73.1719 385.75C80.1254 384.378 95.282 384.596 102.797 386.177ZM281.027 386.772C291.451 390.283 299.519 396.601 303.732 404.552C304.423 405.855 304.987 409.535 304.987 412.727C304.987 423.63 296.958 433.635 284.05 438.819C279.083 440.814 276.599 441.123 265.807 441.085C254.27 441.044 252.623 440.791 244.317 437.784C233.869 434.002 209.596 422.248 202.338 417.455C195.918 413.216 195.53 410.911 200.535 406.753C205.206 402.873 225.881 392.678 235.156 389.682C251.483 384.409 270.438 383.206 281.027 386.772ZM194.342 537.521C202.776 540.855 212.672 550.802 215.743 559.035C218.863 567.395 218.939 583.535 215.898 591.639C211.539 603.259 205.265 610.089 194.178 615.281C188.664 617.864 187.553 618.013 173.852 618.013C159.654 618.013 159.223 617.949 152.683 614.85C139.763 608.732 132.217 598.609 129.776 584.126C127.532 570.806 129.92 559.153 136.745 550.116C141.544 543.761 147.206 539.805 155.717 536.855C161.569 534.827 163.9 534.589 175.351 534.852C186.212 535.102 189.33 535.54 194.342 537.521Z" fill="#CFCFCF"/>
</svg>
