<svg width="141" height="21" viewBox="0 0 141 21" fill="none" xmlns="http://www.w3.org/2000/svg"><g clip-path="url(#a)"><path d="M20.913 3.767h-1.987V20.67h-3.668L6.298 9.154v7.75h1.988v3.767H0v-3.766h1.987V3.767H0V0h6.292l8.322 10.72V3.768h-1.987V0h8.286zm13.22 9.51c0 .303 0 .606-.027.935h-9.053c-.233 2.855.848 3.72 2.525 3.72 1.4 0 2.438-.895 2.438-2.317h3.902c-.084 2.501-1.436 5.387-6.588 5.387s-7.587-3.656-7.587-7.751c0-3.656 2.491-7.56 7.503-7.56s6.887 3.271 6.887 7.587m22.525-3.7h-1.325l-3.355 11.096h-4.46l-2.11-6.079-1.868 6.079h-4.55L35.223 9.577h-1.325V5.82h7.88v3.757h-1.987l2.053 5.909 2.704-9.666h2.425l3.32 9.664 1.765-5.907H50.07V5.82h6.59v3.757zm5.54.154c0 .523.42.88 1.904 1.347l2.127.688c1.96.633 4.312 2.062 4.312 4.672 0 3.079-2.351 4.564-5.236 4.564-2.295 0-4.11-1.1-4.586-1.594l-.006 1.265H56.86v-5.14h3.77c.112 1.677 1.623 2.556 3.024 2.556 1.12 0 1.653-.466 1.653-1.043 0-.688-.42-1.072-2.324-1.676l-1.877-.606c-1.903-.604-4.06-1.978-4.06-4.48 0-3.051 2.745-4.59 5.096-4.59s3.6.665 4.188 1.324l.012-1.154h3.86v4.646h-3.97c-.057-1.265-1.317-1.82-2.576-1.82-.979 0-1.456.44-1.456 1.044m31.462-.153h-1.327l-3.356 11.096h-4.46l-2.11-6.079-1.868 6.079h-4.55L72.225 9.58H70.9V5.823h7.883v3.758h-1.99l2.053 5.909 2.705-9.667h2.424l3.32 9.665 1.765-5.907h-1.987V5.823h6.59zm13.969 3.668c0 .302 0 .604-.027.934h-9.052c-.233 2.856.848 3.72 2.524 3.72 1.399 0 2.439-.895 2.439-2.317h3.902c-.084 2.502-1.436 5.387-6.589 5.387-5.152 0-7.587-3.655-7.587-7.75 0-3.657 2.492-7.56 7.504-7.56s6.886 3.27 6.886 7.586m14.924-.032c0 .302 0 .604-.027.934h-9.053c-.233 2.856.848 3.72 2.524 3.72 1.4 0 2.439-.895 2.439-2.317h3.902c-.084 2.501-1.436 5.387-6.588 5.387s-7.587-3.656-7.587-7.751c0-3.656 2.491-7.56 7.503-7.56s6.887 3.272 6.887 7.587m16.418 7.431h-4.554l-4.721-6.066-1.543 1.126v1.173h1.347v3.765h-6.991v-3.75h1.325v-13.2h-1.987V0h6.306v11.87l3.159-2.268h-1.987V5.82h8.514v3.782h-1.325l-3.327 2.427 3.798 4.86h1.987v3.754zm2.029-.822q0 .231-.117.429a.87.87 0 0 1-.755.429.87.87 0 0 1-.435-.115.86.86 0 0 1-.439-.743q.001-.231.119-.429a.84.84 0 0 1 .32-.314.87.87 0 0 1 .435-.115.87.87 0 0 1 .755.43.84.84 0 0 1 .117.428m-.375.488a.66.66 0 0 0 .206-.488q-.001-.286-.206-.488a.68.68 0 0 0-.497-.203.7.7 0 0 0-.499.203.66.66 0 0 0-.205.488q0 .286.205.488a.7.7 0 0 0 .499.204q.292 0 .497-.204m-.37-.433a.2.2 0 0 1 .079.043q.034.03.074.093.002.006.151.267h-.274a2 2 0 0 0-.179-.315q-.047-.05-.091-.05-.01-.001-.029.004v.36h-.22v-.916h.404c.118 0 .189.023.242.07q.079.07.078.187 0 .09-.06.16a.32.32 0 0 1-.176.098m-.028-.16a.1.1 0 0 0 .042-.082.1.1 0 0 0-.04-.082q-.04-.032-.135-.032h-.109v.227h.1q.1 0 .142-.032m-26.746-7.99h4.943c0-2.088-1.383-2.92-2.418-2.92-1.192 0-2.443.968-2.526 2.92m-88.419.063h4.943c0-2.086-1.385-2.92-2.418-2.92-1.194 0-2.443.97-2.526 2.92m73.494-.032h4.945c0-2.087-1.385-2.92-2.419-2.92-1.192 0-2.442.967-2.526 2.92" fill="#F72210"/></g><defs><clipPath id="a"><path fill="#fff" d="M0 0h141v21H0z"/></clipPath></defs></svg>
